<svg xmlns="http://www.w3.org/2000/svg" xmlns:xlink="http://www.w3.org/1999/xlink" version="1.1" x="0px" y="0px" viewBox="0 90 1920 840" style="enable-background:new 0 0 1920 1080;" xml:space="preserve">
<style type="text/css">
	.st0{stroke:#000000;stroke-miterlimit:10;}
	.st1{fill:none;}
	.st2{fill:#FFFFFF;}
	.st3{fill:#FFFFFF;stroke:#FF0000;stroke-miterlimit:10;}
</style>
<g id="Background">
	<path class="st0" d="M954.7,539.2c-1.1-11.1-1.7-22.3-0.7-33.5c0.1-1.5,0.7-2.6,1.5-3.4c0.1-12.4,2.2-24.6,4-36.9   c0.1-1,0.5-1.7,1-2.3V0.5H0.5v539h954.1C954.6,539.4,954.7,539.3,954.7,539.2z"/>
	<path class="st0" d="M960.5,463V0.5l-0.9,464.2C959.8,464,960.1,463.5,960.5,463z"/>
	<path class="st0" d="M964.3,565.1c0.2-4.6,0.1-9.1-0.8-13.6c0,0,0,0,0,0C963.8,556.1,964.1,560.6,964.3,565.1z"/>
	<path class="st0" d="M1110.5,539.5c0.2,2.7-1.4,5.5-4.8,5.5c-22.7,0-45.4,0.1-68.1,0.2c-20.1,0.1-40.2,0.1-60.4,0.2   c-1.6,0-3.2,0-4.9-0.1c0.4,1.4,0.7,2.8,1,4.3c2.5,13.7-0.4,27.9-2.5,41.5c-2.4,15.6-5.2,31-5.8,46.9c-0.2,4.2-0.3,8.5-0.4,12.7   c0.5,2.4,0.9,4.8,1.1,7.3c0.7,9.1-0.2,18.1-1.4,27.1c-0.3,2.5-2,4-3.8,4.5v390h959v-540H1110.5z"/>
	<g>
		<rect x="94.6" y="57.1" class="st1" width="753" height="423"/>
	</g>
</g>
<g id="white_and_black_boxes_in_corners">
	<rect x="811" y="390" class="st2" width="150" height="150"/>
	<rect x="961" y="540" class="st2" width="150" height="150"/>
	<rect x="961" y="390" width="150" height="150"/>
	<rect x="811" y="540" width="150" height="150"/>
</g>
<g id="Layer_2">
	<g>
		<path class="st2" d="M651.1,292.2h42v167.1h92.4v36.9H651.1V292.2z"/>
	</g>
	<path class="st3" d="M1081,768"/>
	<g>
		<path d="M1136.5,420.3V290.1h42v127.8c0,29.7,12.9,41.1,40.8,41.1c27.6,0,40.2-11.4,40.2-41.1V290.1h42v130.2    c0,51.6-35.7,76.5-82.2,76.5C1172.2,496.8,1136.5,471.9,1136.5,420.3z"/>
	</g>
	<line class="st1" x1="1117.7" y1="-7651" x2="1117.7" y2="8732"/>
	<g>
		<path d="M697.9,653.4l43.5-72h38.5l-55.2,91.3l61.9,110.2h-40.9L702,703.8l-16,23.4v55.7h-33.9V581.4H686V651    c0,9.8-1.2,23.7-2.2,33.8C687.7,674.1,692.8,661.7,697.9,653.4z"/>
	</g>
	<g>
		<path class="st2" d="M1214.8,582.2h3.2l82.4,201.6h-39l-8.5-22.6h-73.2l-8.5,22.6h-35.8L1214.8,582.2z M1239.7,726.8l-13-34.7    c-5.3-14.1-10.9-35.9-10.9-35.9s-5.3,21.7-10.6,35.9l-13,34.7H1239.7z"/>
	</g>
	<g>
	</g>
	<g>
	</g>
	<g>
	</g>
	<g>
	</g>
	<g>
	</g>
	<g>
	</g>
	<g>
	</g>
	<g>
	</g>
	<g>
	</g>
	<g>
	</g>
	<g>
	</g>
	<g>
	</g>
	<g>
	</g>
	<g>
	</g>
	<g>
	</g>
</g>
</svg>
