<?xml version="1.0" standalone="no"?>
<!DOCTYPE svg PUBLIC "-//W3C//DTD SVG 20010904//EN"
 "http://www.w3.org/TR/2001/REC-SVG-20010904/DTD/svg10.dtd">
<svg version="1.0" xmlns="http://www.w3.org/2000/svg"
 width="1200.000000pt" height="1200.000000pt" viewBox="0 0 1200.000000 1200.000000"
 preserveAspectRatio="xMidYMid meet">
<metadata>
Created by potrace 1.11, written by Peter Selinger 2001-2013
</metadata>
<g transform="translate(0.000000,1200.000000) scale(0.100000,-0.100000)"
fill="#000000" stroke="none">
<path d="M7930 7983 c-709 -51 -1259 -363 -1537 -872 -152 -278 -219 -607
-193 -952 27 -346 125 -565 351 -785 255 -247 572 -397 1321 -623 145 -44 301
-94 348 -111 251 -92 360 -187 360 -313 0 -93 -43 -147 -147 -188 -129 -49
-482 -34 -745 32 -318 80 -747 265 -1076 464 l-42 26 -161 -328 c-89 -180
-223 -455 -299 -609 l-138 -282 82 -45 c630 -350 1574 -575 2251 -537 828 47
1352 333 1627 885 110 219 160 529 138 852 -25 374 -147 641 -398 873 -265
245 -633 410 -1462 655 -238 70 -404 139 -487 202 -69 53 -102 147 -83 240 27
129 150 187 395 186 205 -1 404 -43 673 -144 160 -60 387 -165 537 -249 99
-55 111 -60 122 -44 20 27 583 1109 583 1121 0 12 -218 117 -435 210 -587 253
-1134 369 -1585 336z"/>
<path d="M2180 5435 l0 -2515 1830 0 1830 0 0 605 0 605 -1140 0 -1140 0 0
1910 0 1910 -690 0 -690 0 0 -2515z"/>
</g>
</svg>
